<svg width="128" height="128" viewBox="0 0 128 128" fill="none" xmlns="http://www.w3.org/2000/svg">
<style>
  .bg { fill: white; }
  .letter { fill: #1A1A18; }
  .qmark { fill: #D85A30; }
  @media (prefers-color-scheme: dark) {
    .bg { fill: #1A1A18; }
    .letter { fill: #E5E5E7; }
    .qmark { fill: #F0A030; }
  }
</style>
<rect class="bg" width="128" height="128"/>
<path class="qmark" d="M95.7991 94.0498C97.3518 95.6025 99.2415 96.3789 101.468 96.3789C103.695 96.3789 105.584 95.6025 107.137 94.0498C108.69 92.4678 109.466 90.5781 109.466 88.3809C109.466 86.1543 108.69 84.2646 107.137 82.7119C105.584 81.1592 103.695 80.3828 101.468 80.3828C99.2415 80.3828 97.3518 81.1592 95.7991 82.7119C94.2464 84.2646 93.47 86.1543 93.47 88.3809C93.47 90.5781 94.2464 92.4678 95.7991 94.0498Z"/>
<path class="qmark" fill-rule="evenodd" clip-rule="evenodd" d="M95.5354 70.3193V74.0107H107.049V72.3848C107.049 70.5684 107.386 69.0449 108.06 67.8145C108.734 66.5547 109.788 65.4561 111.224 64.5186C114.74 62.2627 117.362 59.6846 119.09 56.7842C120.848 53.8545 121.727 50.6172 121.727 47.0723C121.727 42.3555 120.086 38.708 116.805 36.1299C113.524 33.5225 108.909 32.2188 102.962 32.2188C98.304 32.2188 93.9827 33.1709 89.9983 35.0752C86.0139 36.9502 82.9378 39.4551 80.7698 42.5898L87.1858 50.8516C89.0608 48.5664 91.3313 46.7354 93.9973 45.3584C96.6634 43.9814 99.3733 43.293 102.127 43.293C104.383 43.293 106.112 43.7617 107.313 44.6992C108.514 45.6074 109.115 46.9111 109.115 48.6104C109.115 50.1338 108.69 51.584 107.84 52.9609C106.991 54.3086 105.775 55.4951 104.193 56.5205C101.263 58.4541 99.0804 60.4902 97.6448 62.6289C96.2386 64.7383 95.5354 67.3018 95.5354 70.3193Z"/>
<path class="letter" fill-rule="evenodd" clip-rule="evenodd" d="M26.4534 95.7197V85.041H28.6507C29.7932 85.041 30.8479 84.7773 31.8147 84.25C32.8108 83.6934 33.5139 82.3457 33.9241 80.207L34.8909 75.373C35.2718 73.4102 35.9602 72.0186 36.9563 71.1982C37.9524 70.3486 39.1389 69.8213 40.5159 69.6162C41.9221 69.4111 43.387 69.3086 44.9104 69.3086H45.7893V67.4822C45.3423 67.4646 44.8735 67.4435 44.3831 67.4189C42.6546 67.3018 40.8528 67.0088 38.9778 66.54C37.1028 66.042 35.345 65.2363 33.7044 64.123C32.093 63.0098 30.7747 61.457 29.7493 59.4648C28.7239 57.4727 28.2112 54.8945 28.2112 51.7305C28.2112 45.7832 30.1155 41.1982 33.9241 37.9756C37.762 34.7236 43.0208 33.0977 49.7005 33.0977H59.8518H61.346H71.4534V95.5H59.8518V73.3866L52.0312 73.3427C50.7529 73.4172 49.7123 73.6106 48.9095 73.9229C47.8548 74.3037 47.093 74.9189 46.6243 75.7686C46.1555 76.5889 45.8479 77.6582 45.7014 78.9766L45.0862 84.4697C44.7932 87.7803 43.3723 90.4902 40.8235 92.5996C38.2747 94.6797 34.3636 95.7197 29.0901 95.7197H26.4534ZM59.8518 62.6817V43.7764H49.7005C46.8587 43.7764 44.5882 44.5088 42.8889 45.9736C41.219 47.4092 40.3841 49.5625 40.3841 52.4336C40.3841 55.627 41.219 58.1318 42.8889 59.9482C44.5882 61.7646 46.8587 62.6729 49.7005 62.6729L59.8518 62.6817Z"/>
</svg>
